<svg width="48" height="48" viewBox="0 0 48 48" fill="none" xmlns="http://www.w3.org/2000/svg">
<path d="M20 16H14V20H20V16Z" fill="#1A1C1E"/>
<path d="M10 22H20V26H10V22Z" fill="#1A1C1E"/>
<path d="M20 28H10V32H20V28Z" fill="#1A1C1E"/>
<path d="M28 28H38V32H28V28Z" fill="#1A1C1E"/>
<path d="M38 22H28V26H38V22Z" fill="#1A1C1E"/>
<path d="M28 16H34V20H28V16Z" fill="#1A1C1E"/>
<path fill-rule="evenodd" clip-rule="evenodd" d="M42 8H28C27.468 8 26.96 8.21 26.586 8.586L24 11.172L21.414 8.586C21.04 8.212 20.532 8 20 8H6C4.894 8 4 8.898 4 10V36C4 37.104 4.894 38 6 38H19.172L22.586 41.414C22.976 41.806 23.488 42 24 42C24.512 42 25.024 41.804 25.414 41.414L28.828 38H42C43.106 38 44 37.104 44 36V10C44 8.898 43.106 8 42 8ZM8 34V12H19.172L22 14.83V35.174L21.414 34.588C21.04 34.212 20.532 34 20 34H8ZM40 12V34H28C27.468 34 26.96 34.21 26.586 34.586L26 35.172V14.83L28.828 12H40Z" fill="#1A1C1E"/>
</svg>
