<svg width="48" height="48" viewBox="0 0 48 48" fill="none" xmlns="http://www.w3.org/2000/svg">
<path d="M31.172 16.0019H16C11.59 16.0019 8 19.5919 8 24.0019H4C4 17.3839 9.382 12.0019 16 12.0019H31.172L26.586 7.41589L29.414 4.58789L37.414 12.5879C38.196 13.3699 38.196 14.6339 37.414 15.4159L29.414 23.4159L26.586 20.5879L31.172 16.0019Z" fill="#1A1C1E"/>
<path d="M32 32.002C36.41 32.002 40 28.412 40 24.002H44C44 30.62 38.618 36.002 32 36.002H16.828L21.414 40.588L18.586 43.416L10.586 35.416C9.80401 34.634 9.80401 33.37 10.586 32.588L18.586 24.588L21.414 27.416L16.828 32.002H32Z" fill="#1A1C1E"/>
</svg>
