<svg width="48" height="48" viewBox="0 0 48 48" fill="none" xmlns="http://www.w3.org/2000/svg">
<g clip-path="url(#clip0_4669_63308)">
<path fill-rule="evenodd" clip-rule="evenodd" d="M4 24.0039V20.0039H10V18.0039H2C0.894 18.0039 0 17.1079 0 16.0039V2.00391C0 0.897906 0.894 0.00390625 2 0.00390625H22C23.106 0.00390625 24 0.897906 24 2.00391V16.0039C24 17.1079 23.106 18.0039 22 18.0039H14V20.0039H20V24.0039H4ZM20 12.0039V4.00391H4V12.0039H20Z" fill="#1A1C1E"/>
<path fill-rule="evenodd" clip-rule="evenodd" d="M34 24.0039H46C47.106 24.0039 48 24.8979 48 26.0039V46.0039C48 47.1079 47.106 48.0039 46 48.0039H34C32.894 48.0039 32 47.1079 32 46.0039V26.0039C32 24.8979 32.894 24.0039 34 24.0039ZM44 40.0039V28.0039H36V40.0039H44Z" fill="#1A1C1E"/>
<path d="M35.4141 12.5898L32.8281 10.0038H38.0001V20.0038H42.0001V8.00384C42.0001 6.89784 41.1061 6.00384 40.0001 6.00384H32.8281L35.4141 3.41784L32.5861 0.589844L25.1721 8.00384L32.5861 15.4178L35.4141 12.5898Z" fill="#1A1C1E"/>
<path d="M21.172 38.0039L18.586 35.4179L21.414 32.5899L28.828 40.0039L21.414 47.4179L18.586 44.5899L21.172 42.0039H12C10.894 42.0039 10 41.1079 10 40.0039V28.0039H14V38.0039H21.172Z" fill="#1A1C1E"/>
</g>
<defs>
<clipPath id="clip0_4669_63308">
<rect width="48" height="48" fill="white"/>
</clipPath>
</defs>
</svg>
