<svg width="48" height="48" viewBox="0 0 48 48" fill="none" xmlns="http://www.w3.org/2000/svg">
<path d="M8.208 18C8.086 17.324 8 16.654 8 16C8 11.14 11.14 8 16 8C18.578 8 20.704 9.876 21.574 12H26.426C27.296 9.876 29.422 8 32 8C36.86 8 40 11.14 40 16C40 17.306 39.734 18.648 39.3 20H43.424C43.77 18.664 44 17.326 44 16C44 8.934 39.066 4 32 4C28.812 4 25.86 5.674 24 8.16C22.14 5.674 19.188 4 16 4C8.934 4 4 8.934 4 16C4 16.664 4.076 17.332 4.168 18H8.208Z" fill="#1A1C1E"/>
<path d="M23.9899 39.42C21.9139 37.686 19.0739 35.054 16.3599 32H11.1179C16.2439 38.44 22.3319 43.238 22.7739 43.58C23.1319 43.86 23.5659 44 23.9999 44C24.4339 44 24.8679 43.86 25.2259 43.58C25.6199 43.274 30.5219 39.412 35.2179 34H29.7919C27.4579 36.404 25.2819 38.33 23.9899 39.42Z" fill="#1A1C1E"/>
<path d="M34.416 27.3179L39.394 23.9999H46V27.9999H40.606L33.584 32.6819L25.834 22.9959L18 30.8299L12 24.8299L8.828 27.9999H2V23.9999H7.172L12 19.1719L18 25.1719L26.166 17.0059L34.416 27.3179Z" fill="#1A1C1E"/>
</svg>
