<svg width="49" height="48" viewBox="0 0 49 48" fill="none" xmlns="http://www.w3.org/2000/svg">
<path d="M12.334 24C13.4386 24 14.334 23.1046 14.334 22C14.334 20.8954 13.4386 20 12.334 20C11.2294 20 10.334 20.8954 10.334 22C10.334 23.1046 11.2294 24 12.334 24Z" fill="#1A1C1E"/>
<path d="M18.334 20H38.334V24H18.334V20Z" fill="#1A1C1E"/>
<path d="M12.334 30C13.4386 30 14.334 29.1046 14.334 28C14.334 26.8954 13.4386 26 12.334 26C11.2294 26 10.334 26.8954 10.334 28C10.334 29.1046 11.2294 30 12.334 30Z" fill="#1A1C1E"/>
<path d="M18.334 26H38.334V30H18.334V26Z" fill="#1A1C1E"/>
<path d="M12.334 36C13.4386 36 14.334 35.1046 14.334 34C14.334 32.8954 13.4386 32 12.334 32C11.2294 32 10.334 32.8954 10.334 34C10.334 35.1046 11.2294 36 12.334 36Z" fill="#1A1C1E"/>
<path d="M18.334 32H38.334V36H18.334V32Z" fill="#1A1C1E"/>
<path fill-rule="evenodd" clip-rule="evenodd" d="M42.334 4H6.33398C4.12798 4 2.33398 5.794 2.33398 8V40C2.33398 42.206 4.12798 44 6.33398 44H42.334C44.54 44 46.334 42.206 46.334 40V8C46.334 5.794 44.54 4 42.334 4ZM42.334 12H26.334V8H42.334V12ZM16.334 12V8H22.334V12H16.334ZM12.334 8V12H6.33398V8H12.334ZM6.33398 40V16H42.332L42.328 40H6.33398Z" fill="#1A1C1E"/>
</svg>
